<svg width="961" height="981" viewBox="0 0 961 981" fill="none" xmlns="http://www.w3.org/2000/svg">
<path fill-rule="evenodd" clip-rule="evenodd" d="M1.969 2.754C3.568 5.031 264.666 384.951 349.192 507.992C362.6 527.508 373.594 544.193 373.624 545.068C373.666 546.318 242.105 699.834 5.839 974.226L0 981.007H42.441H84.882L248.153 791.257C337.952 686.894 411.884 601.507 412.447 601.507C413.01 601.507 472.156 686.895 543.884 791.257L674.298 981.007H817.286H960.274L957.373 976.757C955.02 973.309 664.047 549.864 591.451 444.24C580.765 428.693 572.17 415.557 572.35 415.049C572.531 414.54 601.062 381.135 635.753 340.816C670.445 300.496 750.432 207.533 813.503 134.23C876.574 60.928 928.178 0.741 928.178 0.48C928.178 0.22 909.165 0.039 885.928 0.079L843.678 0.15L689.178 180.019C604.203 278.947 534.344 359.802 533.935 359.698C533.527 359.593 477.68 278.732 409.83 180.007L286.467 0.507L143.252 0.254L0.037 0L1.969 2.754ZM259.895 84.448C267.715 95.677 334.945 191.859 409.296 298.186C483.646 404.513 607.717 581.957 685.008 692.507C762.299 803.057 829.724 899.473 834.84 906.764L844.142 920.021L779.021 919.764L713.901 919.507L660.735 843.507C631.494 801.707 566.666 709.007 516.673 637.507C466.681 566.007 389.116 455.082 344.306 391.007C192.303 173.65 119.54 69.515 117.742 66.757L115.948 64.007L180.813 64.019L245.678 64.031L259.895 84.448Z" fill="white"/>
</svg>
