<?xml version="1.0" standalone="no"?>
<!DOCTYPE svg PUBLIC "-//W3C//DTD SVG 20010904//EN"
 "http://www.w3.org/TR/2001/REC-SVG-20010904/DTD/svg10.dtd">
<svg version="1.0" xmlns="http://www.w3.org/2000/svg"
 width="260.000000pt" height="260.000000pt" viewBox="0 0 260.000000 260.000000"
 preserveAspectRatio="xMidYMid meet">
<metadata>
Created by potrace 1.14, written by Peter Selinger 2001-2017
</metadata>
<g transform="translate(0.000000,260.000000) scale(0.100000,-0.100000)"
fill="#000000" stroke="none">
<path d="M220 2541 c0 -27 -3 -30 -37 -33 -35 -3 -38 -6 -41 -35 -3 -31 -6
-33 -43 -33 l-39 0 0 -1075 0 -1075 40 0 40 0 0 -50 0 -50 40 0 c37 0 40 -2
40 -27 0 -16 3 -38 6 -50 6 -23 6 -23 -110 -23 l-116 0 0 -30 0 -30 1300 0
1300 0 0 25 0 25 -110 0 -110 0 0 55 0 55 40 0 40 0 0 50 0 50 40 0 40 0 0
1075 0 1075 -40 0 c-39 0 -40 1 -40 35 0 34 -1 35 -40 35 -38 0 -40 2 -40 30
l0 30 -1080 0 -1080 0 0 -29z m2160 -246 c0 -168 -1 -175 -20 -175 -19 0 -20
7 -20 100 l0 100 -1020 0 -1019 0 -3 -957 c-2 -527 -1 -966 1 -975 3 -17 60
-18 1017 -18 l1013 0 -3 -37 -4 -38 -1038 -1 c-572 0 -1058 2 -1082 4 l-42 4
2 1047 3 1046 28 3 c24 3 27 8 27 38 l0 34 1080 0 1080 0 0 -175z m-295 -111
c9 -4 15 -19 15 -40 0 -31 -3 -34 -30 -34 l-30 0 0 -75 c0 -73 -1 -75 -25 -75
-22 0 -25 4 -25 35 l0 35 -85 0 -85 0 0 -35 c0 -35 0 -35 -45 -35 l-45 0 0
-105 0 -105 45 0 c43 0 45 -1 45 -30 l0 -30 85 0 85 0 0 30 c0 25 4 30 25 30
l25 0 0 -455 0 -455 -155 0 -155 0 0 -165 0 -165 -649 0 -648 0 -7 53 c-8 70
-8 1612 1 1620 8 9 1636 9 1658 1z m135 -314 l0 -310 -25 0 -25 0 0 310 0 310
25 0 25 0 0 -310z m-240 26 l0 -64 -75 -4 -75 -3 0 68 0 67 75 0 75 0 0 -64z
m240 -601 l0 -185 -25 0 -25 0 0 185 0 185 25 0 25 0 0 -185z m0 -525 l0 -260
-25 0 -25 0 0 260 0 260 25 0 25 0 0 -260z m-240 -90 l0 -90 -95 0 -95 0 0 90
0 90 95 0 95 0 0 -90z"/>
<path d="M610 1995 c0 -32 -2 -35 -30 -35 -28 0 -30 -3 -30 -35 0 -34 12 -43
53 -36 4 0 7 -15 7 -34 l0 -35 65 0 65 0 0 35 c0 33 2 35 35 35 33 0 35 2 35
35 0 33 -2 35 -35 35 -33 0 -35 2 -35 35 l0 35 -65 0 -65 0 0 -35z m130 -75
c0 -27 -3 -30 -30 -30 -27 0 -30 3 -30 30 0 27 3 30 30 30 27 0 30 -3 30 -30z"/>
<path d="M1074 1790 l6 -40 -55 0 -55 0 0 -35 0 -35 -50 0 -50 0 0 -60 0 -60
-35 0 -35 0 0 -234 0 -235 33 -3 c28 -3 32 -7 35 -35 3 -27 7 -33 28 -33 21 0
24 -5 24 -35 0 -30 3 -35 24 -35 21 0 25 -5 28 -37 3 -38 3 -38 50 -41 40 -3
49 -7 54 -26 3 -12 4 -26 3 -32 -1 -5 -1 -13 0 -19 1 -6 84 -11 221 -13 l220
-4 0 49 0 48 50 -3 50 -4 0 41 c0 37 2 41 25 41 25 0 30 11 27 53 -1 13 6 17
28 17 28 0 30 3 30 35 0 32 2 35 30 35 l30 0 0 234 0 235 -32 3 -33 3 3 58 4
57 -56 0 -56 0 0 35 0 35 -50 0 -50 0 0 40 0 40 -226 0 -227 0 7 -40z m366
-47 c0 -8 13 -13 34 -13 30 0 35 -3 38 -27 3 -26 7 -28 50 -31 42 -3 47 -6 50
-30 2 -19 10 -28 25 -30 15 -2 23 -11 25 -30 2 -21 9 -28 31 -30 l27 -3 0
-195 0 -194 -29 0 c-27 0 -30 -3 -33 -37 -2 -31 -7 -39 -25 -41 -18 -3 -23
-10 -23 -33 0 -28 -1 -29 -50 -29 -47 0 -50 -2 -50 -25 0 -21 -5 -25 -31 -25
-22 0 -32 -5 -36 -20 -5 -19 -14 -20 -149 -20 -137 0 -144 1 -144 20 0 16 -7
20 -35 20 -30 0 -35 3 -35 24 0 23 -5 25 -47 28 -34 2 -48 7 -49 18 -1 8 -2
20 -3 27 0 6 -11 13 -23 15 -19 2 -24 10 -26 41 -3 31 -7 37 -26 37 -31 0 -36
31 -36 232 l0 157 28 3 c21 2 28 9 30 31 3 21 9 27 28 27 20 0 24 5 24 30 0
29 1 30 50 30 49 0 50 1 50 30 0 27 3 30 34 30 20 0 36 6 39 14 8 20 287 19
287 -1z"/>
<path d="M1150 1680 c0 -5 -13 -10 -30 -10 -25 0 -30 -4 -30 -25 0 -21 -5 -25
-30 -25 -27 0 -30 -3 -30 -29 0 -25 -4 -30 -27 -33 -26 -3 -28 -7 -31 -55 -3
-45 -6 -53 -23 -53 -18 0 -19 -8 -19 -115 0 -107 1 -115 19 -115 16 0 20 -8
23 -42 3 -39 6 -43 31 -46 21 -3 27 -9 27 -28 0 -19 5 -24 24 -24 17 0 26 -7
30 -25 5 -20 13 -25 36 -25 23 0 30 -4 30 -20 0 -19 7 -20 145 -20 138 0 145
1 145 20 0 16 7 20 35 20 31 0 35 3 35 25 0 20 5 25 25 25 23 0 31 13 23 37
-2 4 11 10 27 13 27 5 30 9 33 48 3 37 6 42 28 42 l24 0 0 115 0 115 -25 0
c-24 0 -25 3 -25 55 0 54 0 55 -30 55 -27 0 -30 3 -30 30 0 25 -4 30 -25 30
-20 0 -25 5 -25 25 0 22 -4 25 -35 25 -19 0 -35 5 -35 10 0 6 -55 10 -145 10
-90 0 -145 -4 -145 -10z m10 -154 c0 -30 3 -35 28 -38 22 -2 28 -8 30 -35 l3
-33 75 0 74 0 0 35 c0 32 2 35 29 35 26 0 30 4 33 33 3 32 4 32 61 35 l57 3 0
-36 c0 -32 -2 -35 -30 -35 -27 0 -30 -3 -30 -29 0 -25 -4 -30 -27 -33 -22 -2
-29 -9 -33 -33 -3 -20 -12 -31 -25 -33 -29 -6 -38 -17 -30 -41 4 -14 15 -21
30 -21 18 0 26 -7 31 -25 4 -18 13 -25 30 -25 20 0 24 -5 24 -30 0 -27 3 -30
30 -30 27 0 30 -3 30 -30 0 -30 -1 -30 -54 -30 -52 0 -55 1 -58 28 -2 21 -9
28 -30 30 -22 3 -28 9 -28 28 0 20 -5 24 -30 24 -28 0 -30 3 -30 35 0 31 -3
35 -25 33 -21 -2 -25 -7 -25 -35 0 -29 -3 -33 -25 -33 -20 0 -25 -5 -25 -25 0
-21 -5 -25 -30 -25 -27 0 -30 -3 -30 -30 l0 -31 -57 3 c-55 3 -58 4 -61 31 -3
24 0 27 27 27 28 0 31 3 31 30 0 25 4 30 25 30 20 0 25 5 25 25 0 21 5 25 30
25 27 0 30 3 30 29 0 25 -4 30 -27 33 -23 2 -29 8 -31 36 -3 26 -7 32 -28 32
-20 0 -24 5 -24 30 0 27 -3 30 -30 30 -28 0 -30 3 -30 35 l0 35 60 0 60 0 0
-34z"/>
<path d="M669 888 c-1 -13 -1 -29 0 -35 1 -9 -15 -13 -53 -13 -60 0 -71 -8
-62 -46 6 -21 12 -24 56 -24 37 0 50 -4 52 -15 0 -8 1 -21 2 -27 1 -7 -10 -13
-24 -13 -21 0 -26 -6 -28 -33 -3 -26 -8 -32 -26 -32 -17 0 -25 -7 -28 -23 -9
-45 -3 -47 128 -47 l125 0 -3 68 -3 67 -33 -3 c-31 -3 -32 -2 -30 27 2 28 6
31 35 31 31 0 33 2 33 35 0 33 -2 35 -35 35 -33 0 -35 2 -35 35 0 33 -2 35
-35 35 -29 0 -35 -4 -36 -22z m71 -83 c0 -22 -4 -25 -35 -25 -19 0 -35 4 -35
9 0 27 15 41 41 41 24 0 29 -4 29 -25z"/>
</g>
</svg>
